<svg width="12" height="11" viewBox="0 0 12 11" fill="none" xmlns="http://www.w3.org/2000/svg">
<path d="M5.29219 9.97344L5.23359 9.91953L1.12734 6.10625C0.407812 5.43828 0 4.50078 0 3.51875V3.4414C0 1.7914 1.17188 0.37578 2.79375 0.066405C3.71719 -0.11172 4.66172 0.101561 5.41406 0.631249C5.625 0.781249 5.82188 0.954686 6 1.15391C6.09844 1.04141 6.20391 0.93828 6.31641 0.842186C6.40313 0.767186 6.49219 0.696874 6.58594 0.631249C7.33828 0.101561 8.28281 -0.11172 9.20625 0.0640613C10.8281 0.373436 12 1.7914 12 3.4414V3.51875C12 4.50078 11.5922 5.43828 10.8727 6.10625L6.76641 9.91953L6.70781 9.97344C6.51563 10.1516 6.2625 10.2523 6 10.2523C5.7375 10.2523 5.48438 10.1539 5.29219 9.97344ZM5.60391 2.39844C5.59453 2.39141 5.5875 2.38203 5.58047 2.37265L5.16328 1.90391L5.16094 1.90156C4.61953 1.29453 3.80156 1.01797 3.00469 1.17031C1.9125 1.3789 1.125 2.33047 1.125 3.4414V3.51875C1.125 4.18672 1.40391 4.82656 1.89375 5.28125L6 9.09453L10.1063 5.28125C10.5961 4.82656 10.875 4.18672 10.875 3.51875V3.4414C10.875 2.33281 10.0875 1.3789 8.99766 1.17031C8.20078 1.01797 7.38047 1.29687 6.84141 1.90156C6.84141 1.90156 6.84141 1.90156 6.83906 1.90391C6.83672 1.90625 6.83906 1.90391 6.83672 1.90625L6.41953 2.375C6.4125 2.38437 6.40312 2.39141 6.39609 2.40078C6.29062 2.50625 6.14766 2.56484 6 2.56484C5.85234 2.56484 5.70938 2.50625 5.60391 2.40078V2.39844Z" fill="#806C61"/>
</svg>
