<svg width="14" height="15" viewBox="0 0 14 15" fill="none" xmlns="http://www.w3.org/2000/svg">
<path d="M13.9963 7.48633C13.9963 7.97852 13.6317 8.36406 13.2185 8.36406H12.4406L12.4577 12.7445C12.4577 12.8183 12.4528 12.8922 12.4455 12.966V13.4062C12.4455 14.0105 12.0104 14.5 11.4732 14.5H11.0843C11.0575 14.5 11.0309 14.5 11.0041 14.4973C10.97 14.5 10.936 14.5 10.902 14.5H10.112H9.52861C8.99143 14.5 8.5563 14.0105 8.5563 13.4062V12.75V11C8.5563 10.516 8.20868 10.125 7.77845 10.125H6.22276C5.79252 10.125 5.44492 10.516 5.44492 11V12.75V13.4062C5.44492 14.0105 5.00982 14.5 4.47261 14.5H3.88923H3.11382C3.07735 14.5 3.04089 14.4973 3.00443 14.4945C2.97526 14.4973 2.94609 14.5 2.91692 14.5H2.528C1.9908 14.5 1.55569 14.0105 1.55569 13.4062V10.3438C1.55569 10.3192 1.55569 10.2918 1.55812 10.2672V8.36406H0.777846C0.340307 8.36406 0 7.98125 0 7.48633C0 7.24023 0.072923 7.02148 0.243077 6.83008L6.47556 0.71875C6.64572 0.527344 6.84018 0.5 7.01033 0.5C7.18049 0.5 7.37495 0.554688 7.52079 0.691406L13.729 6.83008C13.9234 7.02148 14.0207 7.24023 13.9963 7.48633Z" fill="#2A2A2A"/>
</svg>
