<svg width="14" height="15" viewBox="0 0 14 15" fill="none" xmlns="http://www.w3.org/2000/svg">
<path d="M11.3755 6.18666C11.3755 7.44155 10.9681 8.60077 10.2817 9.54127L13.7437 13.0052C14.0854 13.347 14.0854 13.902 13.7437 14.2437C13.4018 14.5854 12.8467 14.5854 12.5049 14.2437L9.04303 10.7797C8.10234 11.4687 6.9429 11.8733 5.68777 11.8733C2.54582 11.8733 0 9.32798 0 6.18666C0 3.04532 2.54582 0.5 5.68777 0.5C8.82969 0.5 11.3755 3.04532 11.3755 6.18666ZM5.68777 10.1236C6.20487 10.1236 6.71691 10.0218 7.19466 9.82394C7.6724 9.62605 8.10649 9.33603 8.47213 8.97049C8.83774 8.60491 9.12782 8.17091 9.32575 7.69326C9.5236 7.21561 9.62545 6.70367 9.62545 6.18666C9.62545 5.66966 9.5236 5.15772 9.32575 4.68007C9.12782 4.20242 8.83774 3.76841 8.47213 3.40284C8.10649 3.03727 7.6724 2.74727 7.19466 2.54942C6.71691 2.35158 6.20487 2.24974 5.68777 2.24974C5.17066 2.24974 4.65862 2.35158 4.18088 2.54942C3.70314 2.74727 3.26905 3.03727 2.9034 3.40284C2.53776 3.76841 2.24771 4.20242 2.04982 4.68007C1.85194 5.15772 1.75008 5.66966 1.75008 6.18666C1.75008 6.70367 1.85194 7.21561 2.04982 7.69326C2.24771 8.17091 2.53776 8.60491 2.9034 8.97049C3.26905 9.33603 3.70314 9.62605 4.18088 9.82394C4.65862 10.0218 5.17066 10.1236 5.68777 10.1236Z" fill="#2A2A2A"/>
</svg>
