<svg width="14" height="14" viewBox="0 0 14 14" fill="none" xmlns="http://www.w3.org/2000/svg">
<path d="M0 0.65625C0 0.292578 0.262294 0 0.588322 0H1.70368C2.24298 0 2.72099 0.35 2.94406 0.875H13.0191C13.6638 0.875 14.1344 1.55859 13.9653 2.25312L12.9603 6.41758C12.7519 7.27617 12.0533 7.875 11.2566 7.875H4.18444L4.31682 8.6543C4.37074 8.96328 4.61343 9.1875 4.89533 9.1875H11.9626C12.2886 9.1875 12.5509 9.48008 12.5509 9.84375C12.5509 10.2074 12.2886 10.5 11.9626 10.5H4.89533C4.04717 10.5 3.31912 9.82734 3.16223 8.90039L1.89734 1.49023C1.88018 1.38633 1.79929 1.3125 1.70368 1.3125H0.588322C0.262294 1.3125 0 1.01992 0 0.65625ZM3.13772 12.6875C3.13772 12.5151 3.16815 12.3445 3.22729 12.1852C3.28642 12.026 3.37309 11.8813 3.48235 11.7594C3.59161 11.6375 3.72132 11.5409 3.86408 11.4749C4.00684 11.4089 4.15984 11.375 4.31436 11.375C4.46888 11.375 4.62189 11.4089 4.76465 11.4749C4.9074 11.5409 5.03712 11.6375 5.14638 11.7594C5.25564 11.8813 5.34231 12.026 5.40144 12.1852C5.46057 12.3445 5.49101 12.5151 5.49101 12.6875C5.49101 12.8599 5.46057 13.0305 5.40144 13.1898C5.34231 13.349 5.25564 13.4937 5.14638 13.6156C5.03712 13.7375 4.9074 13.8341 4.76465 13.9001C4.62189 13.9661 4.46888 14 4.31436 14C4.15984 14 4.00684 13.9661 3.86408 13.9001C3.72132 13.8341 3.59161 13.7375 3.48235 13.6156C3.37309 13.4937 3.28642 13.349 3.22729 13.1898C3.16815 13.0305 3.13772 12.8599 3.13772 12.6875ZM11.3742 11.375C11.6863 11.375 11.9856 11.5133 12.2062 11.7594C12.4269 12.0056 12.5509 12.3394 12.5509 12.6875C12.5509 13.0356 12.4269 13.3694 12.2062 13.6156C11.9856 13.8617 11.6863 14 11.3742 14C11.0622 14 10.7629 13.8617 10.5422 13.6156C10.3216 13.3694 10.1976 13.0356 10.1976 12.6875C10.1976 12.3394 10.3216 12.0056 10.5422 11.7594C10.7629 11.5133 11.0622 11.375 11.3742 11.375Z" fill="#2A2A2A"/>
</svg>
